# xmcd
# 
# Track frame offsets:
#     150
#     42295
#     101520
#     138712
#     188737
# 
# Disc length: 3257
# 
# Revision: 6
# Processed by: cddbd v1.5.2PL0 Copyright (c) Steve Scherf et al.
# Submitted via: fre:ac v1.0.17
# 
DISCID=400cb705
DTITLE=Various Artist - ドヴォルザーク：交響曲 第9番 ≪新世界より≫ 他 カラヤン／ベルリン・フィル
DYEAR=1995
DGENRE=Classical
TTITLE0=ドヴォルザーク/交響曲 第9番 ホ短調 作品95 ≪新世界より≫ 第1楽章：Adagio - Allegro molto
TTITLE1=ドヴォルザーク/交響曲 第9番 ホ短調 作品95 ≪新世界より≫ 第2楽章：Largo
TTITLE2=ドヴォルザーク/交響曲 第9番 ホ短調 作品95 ≪新世界より≫ 第3楽章：Molto vivace
TTITLE3=ドヴォルザーク/交響曲 第9番 ホ短調 作品95 ≪新世界より≫ 第4楽章：Allegro con fuoco
TTITLE4=スタメナ/交響詩 ≪モルダウ≫
EXTD=
EXTT0=
EXTT1=
EXTT2=
EXTT3=
EXTT4=
PLAYORDER=
